<svg width="24" height="24" viewBox="0 0 24 24" fill="none" xmlns="http://www.w3.org/2000/svg">
<path d="M12.0001 23C18.0654 23 22.9999 18.0652 22.9999 11.9995C22.9999 5.93435 18.0654 1 12.0001 1C5.93473 1 1.00024 5.93435 1.00024 11.9995C1.00024 18.0652 5.9348 23 12.0001 23ZM12.0001 20.4379C10.2576 20.4379 8.60297 19.9162 7.18738 18.9245C7.76468 17.9668 9.51941 15.567 13.2781 14.1332C14.2255 16.7019 14.708 18.8938 14.9039 19.922C13.9768 20.2646 13.002 20.4379 12.0001 20.4379ZM17.3583 18.5087C17.1456 17.4697 16.7165 15.6415 15.9717 13.4875C16.3483 13.45 16.734 13.4311 17.1251 13.4311C18.4903 13.4311 19.6294 13.6594 20.2309 13.8095C19.8291 15.6451 18.8106 17.3067 17.3583 18.5087ZM18.9046 7.19329C19.7498 8.40334 20.2652 9.82402 20.393 11.2944C19.6179 11.1672 18.29 10.995 16.7786 10.995C16.1797 10.995 15.5998 11.0226 15.0492 11.0769C15.0348 11.0424 15.0202 11.0077 15.0054 10.973C14.8905 10.7044 14.7673 10.4288 14.6373 10.1494C16.883 9.14204 18.2438 7.90824 18.9046 7.19329ZM12.0001 3.58884C13.8913 3.58884 15.7195 4.22543 17.2009 5.39113C16.6901 5.96214 15.5262 7.04928 13.4777 7.89595C12.4565 6.06956 11.4085 4.52113 10.8092 3.67306C11.2021 3.61705 11.6004 3.58884 12.0001 3.58884ZM8.03091 4.58469C8.5251 5.28064 9.61517 6.8605 10.7156 8.75233C7.7556 9.46602 5.15462 9.62093 3.91307 9.6511C4.54589 7.49507 6.03942 5.65352 8.03091 4.58469ZM11.9802 11.0909C12.0761 11.2847 12.168 11.4757 12.256 11.6631C8.51707 12.9481 6.19593 15.8139 5.29884 17.1127C4.23349 15.7159 3.6314 14.0249 3.57902 12.2648C4.88077 12.2512 8.35162 12.1105 11.9802 11.0909Z" fill="black"/>
</svg>
