<svg width="32" height="32" viewBox="0 0 32 32" fill="none" xmlns="http://www.w3.org/2000/svg">
<rect width="32" height="32" rx="16" fill="#181A1D"/>
<path d="M6 9C6 8.17157 6.67157 7.5 7.5 7.5H24.5C25.3284 7.5 26 8.17157 26 9C26 9.82843 25.3284 10.5 24.5 10.5H7.5C6.67157 10.5 6 9.82843 6 9Z" fill="#F6F6F6"/>
<path d="M6 16C6 15.1716 6.67157 14.5 7.5 14.5H24.5C25.3284 14.5 26 15.1716 26 16C26 16.8284 25.3284 17.5 24.5 17.5H7.5C6.67157 17.5 6 16.8284 6 16Z" fill="#F6F6F6"/>
<path d="M7.5 21.5C6.67157 21.5 6 22.1716 6 23C6 23.8284 6.67157 24.5 7.5 24.5H24.5C25.3284 24.5 26 23.8284 26 23C26 22.1716 25.3284 21.5 24.5 21.5H7.5Z" fill="#F6F6F6"/>
</svg>
