<svg width="24" height="24" viewBox="0 0 24 24" fill="none" xmlns="http://www.w3.org/2000/svg">
<path d="M14.8576 4.2225C15.13 4.34389 15.3431 4.56851 15.45 4.84698C15.5569 5.12546 15.5488 5.43498 15.4276 5.7075L9.42756 19.2075C9.36955 19.3455 9.28457 19.4706 9.1776 19.5754C9.07063 19.6802 8.94382 19.7625 8.8046 19.8176C8.66538 19.8728 8.51657 19.8996 8.36686 19.8964C8.21716 19.8933 8.0696 19.8603 7.93281 19.7994C7.79602 19.7385 7.67277 19.6509 7.57028 19.5417C7.46778 19.4326 7.38811 19.3041 7.33593 19.1637C7.28375 19.0234 7.26011 18.874 7.2664 18.7244C7.27269 18.5748 7.30878 18.428 7.37256 18.2925L13.3726 4.7925C13.4939 4.52003 13.7186 4.30693 13.997 4.20004C14.2755 4.09315 14.585 4.10123 14.8576 4.2225ZM6.74706 7.785C6.96984 7.98304 7.10492 8.26139 7.12264 8.55895C7.14036 8.8565 7.03926 9.14892 6.84156 9.372L4.50456 12L6.84156 14.628C7.03967 14.8512 7.14102 15.1439 7.1233 15.4418C7.10557 15.7397 6.97024 16.0184 6.74706 16.2165C6.63655 16.3146 6.5078 16.39 6.36817 16.4383C6.22853 16.4866 6.08074 16.507 5.93324 16.4982C5.63533 16.4805 5.35667 16.3452 5.15856 16.122L2.15856 12.747C1.97573 12.5411 1.87476 12.2753 1.87476 12C1.87476 11.7247 1.97573 11.4589 2.15856 11.253L5.15856 7.878C5.25678 7.76713 5.37593 7.67675 5.50917 7.61204C5.64241 7.54734 5.78712 7.50958 5.93499 7.50094C6.08286 7.4923 6.23098 7.51295 6.37085 7.56169C6.51072 7.61044 6.63959 7.68632 6.75006 7.785H6.74706ZM17.2531 7.785C17.3635 7.68678 17.4921 7.61128 17.6317 7.56279C17.7713 7.51431 17.9191 7.49381 18.0666 7.50244C18.2141 7.51108 18.3585 7.54869 18.4914 7.61313C18.6244 7.67757 18.7434 7.76757 18.8416 7.878L21.8416 11.253C22.0244 11.4589 22.1254 11.7247 22.1254 12C22.1254 12.2753 22.0244 12.5411 21.8416 12.747L18.8416 16.122C18.6434 16.3452 18.3648 16.4805 18.0669 16.4982C17.769 16.516 17.4762 16.4146 17.2531 16.2165C17.0299 16.0184 16.8945 15.7397 16.8768 15.4418C16.8591 15.1439 16.9604 14.8512 17.1586 14.628L19.4941 12L17.1601 9.372C16.9623 9.14892 16.8613 8.8565 16.879 8.55895C16.8967 8.26139 17.0318 7.98304 17.2546 7.785H17.2531Z" fill="#181A1D"/>
</svg>
